<mxfile host="app.diagrams.net" modified="2022-11-10T08:38:12.036Z" agent="5.0 (Windows NT 10.0; Win64; x64) AppleWebKit/537.36 (KHTML, like Gecko) Chrome/107.0.0.0 Safari/537.36" etag="5i6EOuqzMCXk7om5RCZN" version="20.5.3" type="github">
  <diagram id="RJx8XY9zBTmcHCKnqZ1a" name="Page-1">
    <mxGraphModel dx="1662" dy="794" grid="1" gridSize="10" guides="1" tooltips="1" connect="1" arrows="1" fold="1" page="1" pageScale="1" pageWidth="850" pageHeight="1100" math="0" shadow="0">
      <root>
        <mxCell id="0" />
        <mxCell id="1" parent="0" />
        <mxCell id="_uB63zljUhlyIgZcik-1-107" value="" style="rounded=0;whiteSpace=wrap;html=1;shadow=1;strokeColor=#FF0000;fontSize=14;fillColor=#E6D0DE;" vertex="1" parent="1">
          <mxGeometry x="90" y="350" width="110" height="470" as="geometry" />
        </mxCell>
        <mxCell id="_uB63zljUhlyIgZcik-1-98" value="" style="rounded=0;whiteSpace=wrap;html=1;shadow=1;fontSize=18;fillColor=#C9C9C9;" vertex="1" parent="1">
          <mxGeometry x="306" y="296" width="414" height="104" as="geometry" />
        </mxCell>
        <mxCell id="_uB63zljUhlyIgZcik-1-88" value="" style="whiteSpace=wrap;html=1;aspect=fixed;shadow=1;fillColor=#FFCE9F;" vertex="1" parent="1">
          <mxGeometry x="307" y="410" width="410" height="410" as="geometry" />
        </mxCell>
        <mxCell id="_uB63zljUhlyIgZcik-1-97" value="" style="rounded=1;whiteSpace=wrap;html=1;shadow=1;fontSize=18;fillColor=#A9C4EB;" vertex="1" parent="1">
          <mxGeometry x="347" y="593" width="363" height="69" as="geometry" />
        </mxCell>
        <mxCell id="_uB63zljUhlyIgZcik-1-95" value="" style="rounded=1;whiteSpace=wrap;html=1;shadow=1;fontSize=18;fillColor=#A9C4EB;" vertex="1" parent="1">
          <mxGeometry x="347" y="510" width="363" height="71" as="geometry" />
        </mxCell>
        <mxCell id="_uB63zljUhlyIgZcik-1-92" value="" style="rounded=1;whiteSpace=wrap;html=1;shadow=1;fontSize=18;fillColor=#A9C4EB;" vertex="1" parent="1">
          <mxGeometry x="347" y="420" width="363" height="76" as="geometry" />
        </mxCell>
        <mxCell id="_uB63zljUhlyIgZcik-1-41" value="" style="verticalLabelPosition=bottom;verticalAlign=top;html=1;shape=mxgraph.flowchart.on-page_reference;shadow=1;" vertex="1" parent="1">
          <mxGeometry x="386" y="446" width="40" height="40" as="geometry" />
        </mxCell>
        <mxCell id="_uB63zljUhlyIgZcik-1-40" value="" style="verticalLabelPosition=bottom;verticalAlign=top;html=1;shape=mxgraph.flowchart.on-page_reference;shadow=1;" vertex="1" parent="1">
          <mxGeometry x="386" y="615" width="40" height="40" as="geometry" />
        </mxCell>
        <mxCell id="_uB63zljUhlyIgZcik-1-39" value="" style="verticalLabelPosition=bottom;verticalAlign=top;html=1;shape=mxgraph.flowchart.on-page_reference;shadow=1;" vertex="1" parent="1">
          <mxGeometry x="387" y="531" width="40" height="40" as="geometry" />
        </mxCell>
        <mxCell id="_uB63zljUhlyIgZcik-1-5" value="" style="verticalLabelPosition=bottom;html=1;verticalAlign=top;align=center;strokeColor=none;fillColor=#00BEF2;shape=mxgraph.azure.git_repository;" vertex="1" parent="1">
          <mxGeometry x="103" y="645" width="75" height="60" as="geometry" />
        </mxCell>
        <mxCell id="_uB63zljUhlyIgZcik-1-6" value="" style="html=1;verticalLabelPosition=bottom;align=center;labelBackgroundColor=#ffffff;verticalAlign=top;strokeWidth=2;strokeColor=#0080F0;shadow=0;dashed=0;shape=mxgraph.ios7.icons.user;" vertex="1" parent="1">
          <mxGeometry x="115" y="360" width="63" height="61" as="geometry" />
        </mxCell>
        <mxCell id="_uB63zljUhlyIgZcik-1-8" value="" style="fontColor=#0066CC;verticalAlign=top;verticalLabelPosition=bottom;labelPosition=center;align=center;html=1;outlineConnect=0;fillColor=#CCCCCC;strokeColor=#6881B3;gradientColor=none;gradientDirection=north;strokeWidth=2;shape=mxgraph.networks.pc;" vertex="1" parent="1">
          <mxGeometry x="101.5" y="452" width="80" height="50" as="geometry" />
        </mxCell>
        <mxCell id="_uB63zljUhlyIgZcik-1-14" value="&lt;b&gt;Developer&lt;/b&gt;" style="text;html=1;strokeColor=none;fillColor=none;align=center;verticalAlign=middle;whiteSpace=wrap;rounded=0;shadow=1;" vertex="1" parent="1">
          <mxGeometry x="111" y="424" width="60" height="30" as="geometry" />
        </mxCell>
        <mxCell id="_uB63zljUhlyIgZcik-1-15" value="&lt;b&gt;Create new branch/Commit&lt;/b&gt;" style="text;html=1;strokeColor=none;fillColor=none;align=center;verticalAlign=middle;whiteSpace=wrap;rounded=0;shadow=1;" vertex="1" parent="1">
          <mxGeometry x="91.75" y="550" width="100" height="30" as="geometry" />
        </mxCell>
        <mxCell id="_uB63zljUhlyIgZcik-1-17" value="" style="shape=flexArrow;endArrow=classic;html=1;rounded=0;entryX=0.5;entryY=1;entryDx=0;entryDy=0;entryPerimeter=0;" edge="1" parent="1" target="_uB63zljUhlyIgZcik-1-8">
          <mxGeometry width="50" height="50" relative="1" as="geometry">
            <mxPoint x="140" y="550" as="sourcePoint" />
            <mxPoint x="450" y="550" as="targetPoint" />
          </mxGeometry>
        </mxCell>
        <mxCell id="_uB63zljUhlyIgZcik-1-18" value="" style="shape=flexArrow;endArrow=classic;html=1;rounded=0;exitX=0.5;exitY=1;exitDx=0;exitDy=0;" edge="1" parent="1" source="_uB63zljUhlyIgZcik-1-15" target="_uB63zljUhlyIgZcik-1-5">
          <mxGeometry width="50" height="50" relative="1" as="geometry">
            <mxPoint x="151.75" y="560" as="sourcePoint" />
            <mxPoint x="151.5" y="512" as="targetPoint" />
          </mxGeometry>
        </mxCell>
        <mxCell id="_uB63zljUhlyIgZcik-1-19" value="" style="verticalLabelPosition=bottom;html=1;verticalAlign=top;align=center;strokeColor=none;fillColor=#00BEF2;shape=mxgraph.azure.git_repository;shadow=1;" vertex="1" parent="1">
          <mxGeometry x="333" y="297" width="60" height="60" as="geometry" />
        </mxCell>
        <mxCell id="_uB63zljUhlyIgZcik-1-20" value="Remote Repo" style="text;html=1;strokeColor=none;fillColor=none;align=center;verticalAlign=middle;whiteSpace=wrap;rounded=0;shadow=1;" vertex="1" parent="1">
          <mxGeometry x="377.5" y="299" width="100" height="35" as="geometry" />
        </mxCell>
        <mxCell id="_uB63zljUhlyIgZcik-1-24" value="" style="endArrow=classic;html=1;rounded=0;exitX=0.5;exitY=1;exitDx=0;exitDy=0;entryX=1;entryY=0.5;entryDx=0;entryDy=0;entryPerimeter=0;startArrow=none;" edge="1" parent="1" source="_uB63zljUhlyIgZcik-1-103" target="_uB63zljUhlyIgZcik-1-5">
          <mxGeometry width="50" height="50" relative="1" as="geometry">
            <mxPoint x="400" y="600" as="sourcePoint" />
            <mxPoint x="450" y="550" as="targetPoint" />
          </mxGeometry>
        </mxCell>
        <mxCell id="_uB63zljUhlyIgZcik-1-31" value="" style="endArrow=none;html=1;rounded=0;exitX=0.5;exitY=0;exitDx=0;exitDy=0;exitPerimeter=0;" edge="1" parent="1">
          <mxGeometry width="50" height="50" relative="1" as="geometry">
            <mxPoint x="363.5" y="692" as="sourcePoint" />
            <mxPoint x="363" y="380" as="targetPoint" />
          </mxGeometry>
        </mxCell>
        <mxCell id="_uB63zljUhlyIgZcik-1-32" value="" style="shape=image;html=1;verticalAlign=top;verticalLabelPosition=bottom;labelBackgroundColor=#ffffff;imageAspect=0;aspect=fixed;image=https://cdn1.iconfinder.com/data/icons/user-interface-flat-5/32/Cycle_refresh_turn_app_repeat_web_user_interface-128.png;shadow=1;" vertex="1" parent="1">
          <mxGeometry x="393" y="452" width="28" height="28" as="geometry" />
        </mxCell>
        <mxCell id="_uB63zljUhlyIgZcik-1-33" value="" style="shape=image;html=1;verticalAlign=top;verticalLabelPosition=bottom;labelBackgroundColor=#ffffff;imageAspect=0;aspect=fixed;image=https://cdn1.iconfinder.com/data/icons/user-interface-flat-5/32/Cycle_refresh_turn_app_repeat_web_user_interface-128.png;shadow=1;" vertex="1" parent="1">
          <mxGeometry x="393" y="537" width="28" height="28" as="geometry" />
        </mxCell>
        <mxCell id="_uB63zljUhlyIgZcik-1-34" value="" style="shape=image;html=1;verticalAlign=top;verticalLabelPosition=bottom;labelBackgroundColor=#ffffff;imageAspect=0;aspect=fixed;image=https://cdn1.iconfinder.com/data/icons/user-interface-flat-5/32/Cycle_refresh_turn_app_repeat_web_user_interface-128.png;shadow=1;" vertex="1" parent="1">
          <mxGeometry x="392" y="620" width="28" height="28" as="geometry" />
        </mxCell>
        <mxCell id="_uB63zljUhlyIgZcik-1-42" value="Functional Checker" style="swimlane;childLayout=stackLayout;horizontal=1;fillColor=none;horizontalStack=1;resizeParent=1;resizeParentMax=0;resizeLast=0;collapsible=0;strokeColor=none;stackBorder=10;stackSpacing=-12;resizable=1;align=center;points=[];fontColor=#000000;whiteSpace=wrap;html=1;shadow=1;" vertex="1" parent="1">
          <mxGeometry x="421" y="419" width="296" height="69" as="geometry" />
        </mxCell>
        <mxCell id="_uB63zljUhlyIgZcik-1-43" value="Pull Code" style="shape=step;perimeter=stepPerimeter;fixedSize=1;points=[];whiteSpace=wrap;html=1;shadow=1;" vertex="1" parent="_uB63zljUhlyIgZcik-1-42">
          <mxGeometry x="10" y="33" width="100" height="26" as="geometry" />
        </mxCell>
        <mxCell id="_uB63zljUhlyIgZcik-1-44" value="Build" style="shape=step;perimeter=stepPerimeter;fixedSize=1;points=[];whiteSpace=wrap;html=1;shadow=1;" vertex="1" parent="_uB63zljUhlyIgZcik-1-42">
          <mxGeometry x="98" y="33" width="100" height="26" as="geometry" />
        </mxCell>
        <mxCell id="_uB63zljUhlyIgZcik-1-46" value="Test" style="shape=step;perimeter=stepPerimeter;fixedSize=1;points=[];whiteSpace=wrap;html=1;shadow=1;" vertex="1" parent="_uB63zljUhlyIgZcik-1-42">
          <mxGeometry x="186" y="33" width="100" height="26" as="geometry" />
        </mxCell>
        <mxCell id="_uB63zljUhlyIgZcik-1-47" value="Code Quality Checker" style="swimlane;childLayout=stackLayout;horizontal=1;fillColor=none;horizontalStack=1;resizeParent=1;resizeParentMax=0;resizeLast=0;collapsible=0;strokeColor=none;stackBorder=10;stackSpacing=-12;resizable=1;align=center;points=[];fontColor=#000000;whiteSpace=wrap;html=1;shadow=1;" vertex="1" parent="1">
          <mxGeometry x="426" y="505" width="290" height="69" as="geometry" />
        </mxCell>
        <mxCell id="_uB63zljUhlyIgZcik-1-48" value="Pull Code&amp;nbsp;" style="shape=step;perimeter=stepPerimeter;fixedSize=1;points=[];whiteSpace=wrap;html=1;shadow=1;" vertex="1" parent="_uB63zljUhlyIgZcik-1-47">
          <mxGeometry x="10" y="33" width="90" height="26" as="geometry" />
        </mxCell>
        <mxCell id="_uB63zljUhlyIgZcik-1-49" value="Connect to Coverity" style="shape=step;perimeter=stepPerimeter;fixedSize=1;points=[];whiteSpace=wrap;html=1;shadow=1;" vertex="1" parent="_uB63zljUhlyIgZcik-1-47">
          <mxGeometry x="88" y="33" width="102" height="26" as="geometry" />
        </mxCell>
        <mxCell id="_uB63zljUhlyIgZcik-1-70" value="Analyze" style="shape=step;perimeter=stepPerimeter;fixedSize=1;points=[];whiteSpace=wrap;html=1;shadow=1;" vertex="1" parent="_uB63zljUhlyIgZcik-1-47">
          <mxGeometry x="178" y="33" width="102" height="26" as="geometry" />
        </mxCell>
        <mxCell id="_uB63zljUhlyIgZcik-1-51" value="Security Checker" style="swimlane;childLayout=stackLayout;horizontal=1;fillColor=none;horizontalStack=1;resizeParent=1;resizeParentMax=0;resizeLast=0;collapsible=0;strokeColor=none;stackBorder=10;stackSpacing=-12;resizable=1;align=center;points=[];fontColor=#000000;whiteSpace=wrap;html=1;shadow=1;" vertex="1" parent="1">
          <mxGeometry x="428" y="590" width="286" height="69" as="geometry" />
        </mxCell>
        <mxCell id="_uB63zljUhlyIgZcik-1-52" value="Pull Code" style="shape=step;perimeter=stepPerimeter;fixedSize=1;points=[];whiteSpace=wrap;html=1;shadow=1;" vertex="1" parent="_uB63zljUhlyIgZcik-1-51">
          <mxGeometry x="10" y="33" width="90" height="26" as="geometry" />
        </mxCell>
        <mxCell id="_uB63zljUhlyIgZcik-1-53" value="Connect to BlackDuck" style="shape=step;perimeter=stepPerimeter;fixedSize=1;points=[];whiteSpace=wrap;html=1;shadow=1;" vertex="1" parent="_uB63zljUhlyIgZcik-1-51">
          <mxGeometry x="88" y="33" width="100" height="26" as="geometry" />
        </mxCell>
        <mxCell id="_uB63zljUhlyIgZcik-1-71" value="Scan" style="shape=step;perimeter=stepPerimeter;fixedSize=1;points=[];whiteSpace=wrap;html=1;shadow=1;" vertex="1" parent="_uB63zljUhlyIgZcik-1-51">
          <mxGeometry x="176" y="33" width="100" height="26" as="geometry" />
        </mxCell>
        <mxCell id="_uB63zljUhlyIgZcik-1-54" value="" style="endArrow=none;html=1;rounded=0;entryX=0;entryY=0.5;entryDx=0;entryDy=0;entryPerimeter=0;" edge="1" parent="1">
          <mxGeometry width="50" height="50" relative="1" as="geometry">
            <mxPoint x="365" y="466" as="sourcePoint" />
            <mxPoint x="383" y="466" as="targetPoint" />
          </mxGeometry>
        </mxCell>
        <mxCell id="_uB63zljUhlyIgZcik-1-58" value="" style="endArrow=none;html=1;rounded=0;entryX=0;entryY=0.5;entryDx=0;entryDy=0;entryPerimeter=0;" edge="1" parent="1">
          <mxGeometry width="50" height="50" relative="1" as="geometry">
            <mxPoint x="365" y="551" as="sourcePoint" />
            <mxPoint x="383" y="551" as="targetPoint" />
          </mxGeometry>
        </mxCell>
        <mxCell id="_uB63zljUhlyIgZcik-1-61" value="" style="endArrow=none;html=1;rounded=0;entryX=0;entryY=0.5;entryDx=0;entryDy=0;entryPerimeter=0;" edge="1" parent="1">
          <mxGeometry width="50" height="50" relative="1" as="geometry">
            <mxPoint x="365" y="637" as="sourcePoint" />
            <mxPoint x="383" y="637" as="targetPoint" />
          </mxGeometry>
        </mxCell>
        <mxCell id="_uB63zljUhlyIgZcik-1-80" value="" style="fillColor=#6ABD46;verticalLabelPosition=bottom;sketch=0;html=1;strokeColor=#ffffff;verticalAlign=top;align=center;points=[[0.145,0.145,0],[0.5,0,0],[0.855,0.145,0],[1,0.5,0],[0.855,0.855,0],[0.5,1,0],[0.145,0.855,0],[0,0.5,0]];pointerEvents=1;shape=mxgraph.cisco_safe.compositeIcon;bgIcon=ellipse;resIcon=mxgraph.cisco_safe.capability.block;shadow=1;" vertex="1" parent="1">
          <mxGeometry x="342" y="677" width="43" height="42" as="geometry" />
        </mxCell>
        <mxCell id="_uB63zljUhlyIgZcik-1-81" value="&lt;b&gt;BLock/UnBlock Merge&lt;/b&gt;" style="text;html=1;strokeColor=none;fillColor=none;align=center;verticalAlign=middle;whiteSpace=wrap;rounded=0;shadow=1;" vertex="1" parent="1">
          <mxGeometry x="383.5" y="692" width="108" height="30" as="geometry" />
        </mxCell>
        <mxCell id="_uB63zljUhlyIgZcik-1-82" value="" style="ellipse;whiteSpace=wrap;html=1;aspect=fixed;shadow=1;" vertex="1" parent="1">
          <mxGeometry x="343.5" y="739" width="40" height="40" as="geometry" />
        </mxCell>
        <mxCell id="_uB63zljUhlyIgZcik-1-83" value="&lt;b&gt;End&lt;/b&gt;" style="text;html=1;strokeColor=none;fillColor=none;align=center;verticalAlign=middle;whiteSpace=wrap;rounded=0;shadow=1;" vertex="1" parent="1">
          <mxGeometry x="333.5" y="731" width="60" height="30" as="geometry" />
        </mxCell>
        <mxCell id="_uB63zljUhlyIgZcik-1-84" value="" style="sketch=0;pointerEvents=1;shadow=0;dashed=0;html=1;strokeColor=none;fillColor=#505050;labelPosition=center;verticalLabelPosition=bottom;verticalAlign=top;outlineConnect=0;align=center;shape=mxgraph.office.concepts.mailbox2;" vertex="1" parent="1">
          <mxGeometry x="121.75" y="739" width="40" height="38" as="geometry" />
        </mxCell>
        <mxCell id="_uB63zljUhlyIgZcik-1-85" value="" style="endArrow=classic;html=1;rounded=0;" edge="1" parent="1">
          <mxGeometry width="50" height="50" relative="1" as="geometry">
            <mxPoint x="343" y="760" as="sourcePoint" />
            <mxPoint x="164.75" y="759.1008827238336" as="targetPoint" />
          </mxGeometry>
        </mxCell>
        <mxCell id="_uB63zljUhlyIgZcik-1-86" value="" style="endArrow=none;html=1;rounded=0;entryX=0.5;entryY=0;entryDx=0;entryDy=0;exitX=0.5;exitY=1;exitDx=0;exitDy=0;exitPerimeter=0;" edge="1" parent="1" source="_uB63zljUhlyIgZcik-1-80" target="_uB63zljUhlyIgZcik-1-82">
          <mxGeometry width="50" height="50" relative="1" as="geometry">
            <mxPoint x="360" y="620" as="sourcePoint" />
            <mxPoint x="410" y="570" as="targetPoint" />
          </mxGeometry>
        </mxCell>
        <mxCell id="_uB63zljUhlyIgZcik-1-87" value="&lt;b&gt;Notification email&lt;/b&gt;" style="text;html=1;strokeColor=none;fillColor=none;align=center;verticalAlign=middle;whiteSpace=wrap;rounded=0;shadow=1;" vertex="1" parent="1">
          <mxGeometry x="200" y="757.5" width="108" height="30" as="geometry" />
        </mxCell>
        <mxCell id="_uB63zljUhlyIgZcik-1-91" value="&lt;b&gt;&lt;font style=&quot;font-size: 18px;&quot;&gt;Jenkins CI/CD&lt;/font&gt;&lt;/b&gt;" style="text;html=1;strokeColor=none;fillColor=none;align=center;verticalAlign=middle;whiteSpace=wrap;rounded=0;shadow=1;" vertex="1" parent="1">
          <mxGeometry x="630" y="745" width="90" height="55" as="geometry" />
        </mxCell>
        <mxCell id="_uB63zljUhlyIgZcik-1-100" value="" style="rounded=0;whiteSpace=wrap;html=1;shadow=1;fontSize=18;fillColor=#00CC00;" vertex="1" parent="1">
          <mxGeometry x="320" y="360" width="100" height="20" as="geometry" />
        </mxCell>
        <mxCell id="_uB63zljUhlyIgZcik-1-99" value="&lt;font style=&quot;font-size: 14px;&quot;&gt;PR Opened&lt;/font&gt;" style="text;html=1;strokeColor=none;fillColor=none;align=center;verticalAlign=middle;whiteSpace=wrap;rounded=0;shadow=1;" vertex="1" parent="1">
          <mxGeometry x="319" y="354" width="100" height="35" as="geometry" />
        </mxCell>
        <mxCell id="_uB63zljUhlyIgZcik-1-101" value="&lt;b&gt;Pull Request&lt;/b&gt;" style="text;html=1;strokeColor=none;fillColor=none;align=center;verticalAlign=middle;whiteSpace=wrap;rounded=0;shadow=1;fontSize=14;rotation=0;" vertex="1" parent="1">
          <mxGeometry x="210" y="458" width="60" height="30" as="geometry" />
        </mxCell>
        <mxCell id="_uB63zljUhlyIgZcik-1-102" value="" style="endArrow=none;html=1;rounded=0;entryX=0.5;entryY=1;entryDx=0;entryDy=0;exitX=0.5;exitY=0;exitDx=0;exitDy=0;exitPerimeter=0;" edge="1" parent="1" source="_uB63zljUhlyIgZcik-1-5" target="_uB63zljUhlyIgZcik-1-101">
          <mxGeometry width="50" height="50" relative="1" as="geometry">
            <mxPoint x="140.5" y="645" as="sourcePoint" />
            <mxPoint x="333" y="327" as="targetPoint" />
          </mxGeometry>
        </mxCell>
        <mxCell id="_uB63zljUhlyIgZcik-1-103" value="&lt;b&gt;Clone&lt;/b&gt;" style="text;html=1;strokeColor=none;fillColor=none;align=center;verticalAlign=middle;whiteSpace=wrap;rounded=0;shadow=1;fontSize=14;rotation=0;" vertex="1" parent="1">
          <mxGeometry x="223" y="524.5" width="60" height="30" as="geometry" />
        </mxCell>
        <mxCell id="_uB63zljUhlyIgZcik-1-104" value="" style="endArrow=none;html=1;rounded=0;exitX=0.5;exitY=1;exitDx=0;exitDy=0;exitPerimeter=0;entryX=0.75;entryY=0;entryDx=0;entryDy=0;" edge="1" parent="1" source="_uB63zljUhlyIgZcik-1-19" target="_uB63zljUhlyIgZcik-1-103">
          <mxGeometry width="50" height="50" relative="1" as="geometry">
            <mxPoint x="363" y="357" as="sourcePoint" />
            <mxPoint x="178" y="675" as="targetPoint" />
          </mxGeometry>
        </mxCell>
        <mxCell id="_uB63zljUhlyIgZcik-1-105" value="" style="endArrow=classic;html=1;rounded=0;fontSize=14;entryX=0;entryY=0.5;entryDx=0;entryDy=0;entryPerimeter=0;" edge="1" parent="1" target="_uB63zljUhlyIgZcik-1-19">
          <mxGeometry width="50" height="50" relative="1" as="geometry">
            <mxPoint x="260" y="460" as="sourcePoint" />
            <mxPoint x="400" y="560" as="targetPoint" />
            <Array as="points">
              <mxPoint x="260" y="460" />
            </Array>
          </mxGeometry>
        </mxCell>
        <mxCell id="_uB63zljUhlyIgZcik-1-106" value="" style="shape=image;html=1;verticalAlign=top;verticalLabelPosition=bottom;labelBackgroundColor=#ffffff;imageAspect=0;aspect=fixed;image=https://cdn0.iconfinder.com/data/icons/social-network-9/50/29-128.png;shadow=1;fontSize=14;fillColor=#00CC00;" vertex="1" parent="1">
          <mxGeometry x="661" y="302.5" width="49" height="49" as="geometry" />
        </mxCell>
        <mxCell id="_uB63zljUhlyIgZcik-1-108" value="&lt;b&gt;Developer&#39;s Evironment&lt;/b&gt;" style="text;html=1;strokeColor=none;fillColor=none;align=center;verticalAlign=middle;whiteSpace=wrap;rounded=0;shadow=1;fontSize=14;" vertex="1" parent="1">
          <mxGeometry x="92.38" y="312" width="108.25" height="30" as="geometry" />
        </mxCell>
      </root>
    </mxGraphModel>
  </diagram>
</mxfile>
